<svg width="49" height="42" viewBox="0 0 49 42" fill="none" xmlns="http://www.w3.org/2000/svg">
<path d="M47.3567 15.4887H0.966673C0.432543 15.4887 0 15.9213 0 16.4554V26.1202C0 26.6543 0.432543 27.0869 0.966673 27.0869H47.3567C47.8909 27.0869 48.3234 26.6543 48.3234 26.1202V16.4547C48.3234 15.9213 47.8909 15.4887 47.3567 15.4887ZM28.1619 0.706225V0.672363H0.966673C0.432543 0.672363 0 1.10491 0 1.63904V11.3038C0 11.838 0.432543 12.2705 0.966673 12.2705H28.1619V12.2367C28.369 12.1837 28.5527 12.0633 28.6839 11.8946C28.8152 11.7259 28.8867 11.5183 28.8871 11.3045V1.6384C28.8871 1.1886 28.5785 0.814201 28.1619 0.706225ZM34.3095 30.2271H0.966673C0.432543 30.2271 0 30.6596 0 31.1938V40.8586C0 41.3927 0.432543 41.8253 0.966673 41.8253H34.3095C34.8437 41.8253 35.2762 41.3927 35.2762 40.8586V31.1938C35.2762 30.6596 34.8437 30.2271 34.3095 30.2271Z" fill="#545454"/>
</svg>
