<svg width="58" height="58" viewBox="0 0 58 58" fill="none" xmlns="http://www.w3.org/2000/svg">
<g clip-path="url(#clip0_2183_1163)">
<path d="M17.8937 26.853L16.2964 31.8046H19.4909L17.8937 26.853Z" fill="#545454"/>
<path d="M48.7211 5.29004H23.1646V13.2764H29.5537V16.471H8.78915C6.07378 16.471 3.99731 18.5474 3.99731 21.2628V38.8329C3.99731 41.5482 6.07378 43.6247 8.78915 43.6247H10.3864V51.7708L20.4493 43.6247H31.151V32.4438H48.7211C51.4365 32.4438 53.5129 30.3673 53.5129 27.6519V10.0819C53.5129 7.3665 51.4365 5.29004 48.7211 5.29004ZM21.2479 37.0759L20.4493 34.5202H15.4977L14.5393 37.0759H10.7059L15.9769 22.8601H19.8104L25.0814 37.0759H21.2479ZM45.5265 24.4574V27.6519C43.4501 27.6519 41.2139 27.013 39.2971 26.0546C37.3804 27.013 35.1442 27.4922 32.908 27.6519L32.7483 24.4574C33.8664 24.4574 34.9845 24.2976 36.1026 23.9782C34.665 22.5406 33.7067 20.7836 33.2275 18.8669H36.5818C37.061 20.3044 38.0193 21.4225 39.1374 22.3809C40.8944 20.9434 42.0125 18.8669 42.1722 16.471H32.5886V13.2764H37.3804V10.0819H40.575V13.2764H45.846L46.0057 14.8737C46.1654 18.228 44.8876 21.5823 42.4917 23.9782C43.6098 24.2976 44.5682 24.4574 45.5265 24.4574Z" fill="#004A40"/>
</g>
<defs>
<clipPath id="clip0_2183_1163">
<rect width="57.502" height="57.502" fill="white" transform="translate(0.323486 0.498047)"/>
</clipPath>
</defs>
</svg>
