<svg width="68" height="68" viewBox="0 0 68 68" fill="none" xmlns="http://www.w3.org/2000/svg">
<path d="M17 2.125C17 1.56142 16.7761 1.02091 16.3776 0.622398C15.9791 0.223883 15.4386 0 14.875 0C14.3114 0 13.7709 0.223883 13.3724 0.622398C12.9739 1.02091 12.75 1.56142 12.75 2.125V4.25H8.5C6.24566 4.25 4.08365 5.14553 2.48959 6.73959C0.895533 8.33365 0 10.4957 0 12.75L0 17H68V12.75C68 10.4957 67.1045 8.33365 65.5104 6.73959C63.9163 5.14553 61.7543 4.25 59.5 4.25H55.25V2.125C55.25 1.56142 55.0261 1.02091 54.6276 0.622398C54.2291 0.223883 53.6886 0 53.125 0C52.5614 0 52.0209 0.223883 51.6224 0.622398C51.2239 1.02091 51 1.56142 51 2.125V4.25H17V2.125ZM39.9585 43.5455C42.6148 43.5455 44.9905 41.4885 44.9905 38.5305C44.9905 34.9945 42.7507 33.303 40.0605 33.303C37.57 33.303 35.0965 34.9478 35.0965 38.4455C35.0965 41.9178 37.4043 43.5455 39.9585 43.5455Z" fill="#004A40"/>
<path d="M68 59.5V21.25H0V59.5C0 61.7543 0.895533 63.9163 2.48959 65.5104C4.08365 67.1045 6.24566 68 8.5 68H59.5C61.7543 68 63.9163 67.1045 65.5104 65.5104C67.1045 63.9163 68 61.7543 68 59.5ZM39.678 54.3575C34.9605 54.3575 32.64 51.0978 32.4403 48.3778H35.343C35.5257 49.9503 36.9877 51.8628 39.8097 51.8628C43.3967 51.8628 45.339 48.2587 45.356 42.6657H45.2413C44.591 44.4252 42.534 46.0233 39.3635 46.0233C35.7425 46.0233 32.2405 43.4307 32.2405 38.5007C32.2405 33.6685 35.9423 30.8125 39.8778 30.8125C44.8588 30.8125 48.178 33.932 48.178 42.1515C48.178 49.8228 45.0245 54.3532 39.678 54.3532V54.3575ZM27.3955 31.2587V53.9198H24.5225V34.3358H24.4715C23.239 34.9988 20.7188 36.5457 19.125 37.638V34.68C20.9158 33.4303 22.7792 32.2879 24.7053 31.2587H27.3955Z" fill="#004A40"/>
</svg>
