<svg width="53" height="53" viewBox="0 0 53 53" fill="none" xmlns="http://www.w3.org/2000/svg">
<path d="M20.4956 8.39697H40.4144C42.0441 8.39697 43.3653 9.71812 43.3653 11.3478V42.3327C43.3653 43.9624 42.0441 45.2836 40.4144 45.2836H20.4956V8.39697Z" fill="#DFBA56"/>
<path d="M19.0205 11.3481H39.677C40.4919 11.3481 41.1525 12.0087 41.1525 12.8236V40.8575C41.1525 41.6723 40.4919 42.3329 39.677 42.3329H19.0205V11.3481Z" fill="#FDFFFF"/>
<path d="M14.5942 8.39697H35.2508C36.8805 8.39697 38.2017 9.71812 38.2017 11.3478V42.3327C38.2017 43.9624 36.8805 45.2836 35.2508 45.2836H14.5942V8.39697Z" fill="#F0CA68"/>
<path d="M10.168 11.3478C10.168 9.71812 11.4891 8.39697 13.1188 8.39697H14.5944V45.2836H13.1188C11.4891 45.2836 10.168 43.9624 10.168 42.3327V11.3478Z" fill="#E9B746"/>
<path d="M17.5459 6.92139H23.4478V13.5825C23.4478 13.9116 23.1015 14.1256 22.8072 13.9784L20.6948 12.9222C20.5702 12.8599 20.4235 12.8599 20.2989 12.9222L18.1865 13.9784C17.8922 14.1256 17.5459 13.9116 17.5459 13.5825V6.92139Z" fill="#D86056"/>
<path d="M16.8076 7.65912L17.5453 6.92139V8.39685H16.0698L16.8076 7.65912Z" fill="#D86056"/>
</svg>
