<svg width="53" height="53" viewBox="0 0 53 53" fill="none" xmlns="http://www.w3.org/2000/svg">
<circle cx="18.0081" cy="18.3189" r="13.0431" transform="rotate(-9.27059 18.0081 18.3189)" fill="#B8E7FB"/>
<circle cx="12.0171" cy="19.9751" r="1.61704" transform="rotate(-9.27059 12.0171 19.9751)" fill="#54B7F8"/>
<circle cx="24.3589" cy="17.9604" r="1.61704" transform="rotate(-9.27059 24.3589 17.9604)" fill="#54B7F8"/>
<path d="M13.8517 22.7347C12.8104 22.9047 12.0916 23.9418 12.769 24.7507C13.1985 25.2637 13.7765 25.6991 14.4699 26.0322C15.1632 26.3654 15.9584 26.5896 16.8101 26.6921C17.6617 26.7946 18.5531 26.7734 19.4333 26.6297C20.3135 26.4861 21.1654 26.2227 21.9402 25.8547C22.715 25.4867 23.3977 25.0213 23.9491 24.485C24.5006 23.9487 24.9101 23.352 25.1542 22.729C25.5392 21.7467 24.5279 20.9921 23.4866 21.162L18.6692 21.9484L13.8517 22.7347Z" fill="#54B7F8"/>
<circle cx="34.583" cy="34.8928" r="12.738" transform="rotate(13.6993 34.583 34.8928)" fill="#F9E3ED"/>
<circle cx="28.5651" cy="34.0992" r="1.57921" transform="rotate(13.6993 28.5651 34.0992)" fill="#EB65A3"/>
<circle cx="40.4303" cy="36.9913" r="1.57921" transform="rotate(13.6993 40.4303 36.9913)" fill="#EB65A3"/>
<path d="M29.1627 37.2788C28.1616 37.0347 27.12 37.6933 27.4208 38.6788C27.6115 39.3037 27.9652 39.9156 28.4618 40.4794C28.9583 41.0431 29.5878 41.5478 30.3145 41.9646C31.0412 42.3813 31.8508 42.702 32.697 42.9083C33.5433 43.1145 34.4096 43.2024 35.2465 43.1668C36.0835 43.1312 36.8747 42.9729 37.5749 42.7008C38.2752 42.4287 38.8708 42.0483 39.3277 41.5812C40.0482 40.8447 39.4265 39.7807 38.4255 39.5367L33.7941 38.4077L29.1627 37.2788Z" fill="#EB65A3"/>
</svg>
