<svg width="53" height="54" viewBox="0 0 53 54" fill="none" xmlns="http://www.w3.org/2000/svg">
<g clip-path="url(#clip0_2074_1136)">
<path d="M33.5132 32.4303C35.9062 29.1925 42.1422 24.3922 47.9418 31.0928" stroke="#5ABAFF" stroke-width="1.68933" stroke-linecap="round"/>
<path d="M18.3628 10.1279C20.9087 10.8676 25.4512 14.6799 23.2544 24.0121" stroke="#FF6969" stroke-width="1.68933" stroke-linecap="round"/>
<path d="M28.3176 27.1002C27.4377 25.3553 27.0023 22.2771 32.2996 23.9236C35.5706 24.9402 34.8734 23.8819 33.5808 22.238C32.2568 20.5541 30.3081 18.2558 31.36 16.9438C33.0643 14.8183 34.2682 18.4649 36.2816 17.2122C38.2949 15.9594 36.1921 12.8276 35.6552 12.3354" stroke="#BC98EC" stroke-width="1.63997" stroke-linecap="round"/>
<circle cx="11.8942" cy="24.3845" r="1.26339" fill="#FF6969"/>
<circle cx="15.3011" cy="17.0701" r="2.14383" fill="#BC98EC"/>
<circle cx="27.939" cy="11.8336" r="2.29498" fill="#5ABAFF"/>
<circle cx="42.6747" cy="20.789" r="2.63957" fill="#FF6969"/>
<circle cx="44.8187" cy="12.4975" r="1.63076" fill="#FFE164"/>
<circle cx="38.7904" cy="38.1337" r="1.31628" fill="#FFD953"/>
<circle cx="49.1073" cy="26.682" r="1.03459" fill="#BC98EC"/>
<path d="M13.9167 49.1042C12.4692 49.7564 10.8913 48.4961 11.2074 46.9402L15.2816 26.8855C15.5716 25.4581 17.2684 24.8422 18.4065 25.7512L32.9904 37.3996C34.1285 38.3087 33.9029 40.0996 32.5748 40.698L13.9167 49.1042Z" fill="#FFE164"/>
<path d="M14.5891 31.2554L32.902 36.2497L33.636 36.836C34.7669 37.7393 34.553 39.5179 33.2399 40.1267L32.3204 40.5534L32.3264 40.5381L13.6882 35.4551L14.5891 31.2554ZM15.6914 26.1104C15.995 24.6952 17.6814 24.093 18.8124 24.9961L27.5561 31.9799L15.1582 28.5978L15.6914 26.1104ZM13.1175 38.1114L28.5242 42.3144L24.3388 44.2544L12.4934 41.0224L13.1175 38.1114ZM13.9591 49.0659C12.5014 49.7416 10.8985 48.4612 11.2351 46.8902L11.9238 43.6807L20.52 46.0249L13.9591 49.0659Z" fill="#FECE1C"/>
<rect x="36.0063" y="41.833" width="28.6471" height="4.47223" rx="2.23611" transform="rotate(-141.385 36.0063 41.833)" fill="#FFDA55"/>
</g>
<defs>
<clipPath id="clip0_2074_1136">
<rect width="52.1724" height="52.1724" fill="white" transform="translate(0.689453 0.844727)"/>
</clipPath>
</defs>
</svg>
