<svg width="34" height="34" viewBox="0 0 34 34" fill="none" xmlns="http://www.w3.org/2000/svg">
<path d="M12.0705 12.308L15.6086 16.4688L12.0726 20.6295C11.2521 21.4387 10.2108 21.9872 9.07942 22.2061C7.94808 22.425 6.77727 22.3046 5.71419 21.8599C4.65112 21.4152 3.74324 20.6662 3.1047 19.7069C2.46617 18.7477 2.12548 17.6211 2.12548 16.4688C2.12548 15.3164 2.46617 14.1898 3.1047 13.2306C3.74324 12.2713 4.65112 11.5223 5.71419 11.0776C6.77727 10.633 7.94808 10.5125 9.07942 10.7314C10.2108 10.9504 11.2521 11.4989 12.0726 12.308H12.0705ZM17.0005 14.8283L13.6345 10.8651L13.6047 10.8333C12.4902 9.71902 11.0703 8.96027 9.52455 8.65297C7.97882 8.34566 6.37668 8.50359 4.92071 9.10679C3.46473 9.70999 2.22031 10.7314 1.34478 12.0418C0.469259 13.3522 0.00195313 14.8928 0.00195312 16.4688C0.00195313 18.0447 0.469259 19.5853 1.34478 20.8957C2.22031 22.2062 3.46473 23.2275 4.92071 23.8307C6.37668 24.4339 7.97882 24.5919 9.52455 24.2846C11.0703 23.9772 12.4902 23.2185 13.6047 22.1043L13.6345 22.0724L17.0005 18.1093L20.3665 22.0724L20.3962 22.1043C21.5107 23.2185 22.9306 23.9772 24.4764 24.2846C26.0221 24.5919 27.6242 24.4339 29.0802 23.8307C30.5362 23.2275 31.7806 22.2062 32.6561 20.8957C33.5317 19.5853 33.999 18.0447 33.999 16.4688C33.999 14.8928 33.5317 13.3522 32.6561 12.0418C31.7806 10.7314 30.5362 9.70999 29.0802 9.10679C27.6242 8.50359 26.0221 8.34566 24.4764 8.65297C22.9306 8.96027 21.5107 9.71902 20.3962 10.8333L20.3665 10.8651L17.0005 14.8283ZM18.3945 16.4688L21.9283 12.308C22.7488 11.4989 23.7902 10.9504 24.9215 10.7314C26.0528 10.5125 27.2237 10.633 28.2867 11.0776C29.3498 11.5223 30.2577 12.2713 30.8962 13.2306C31.5348 14.1898 31.8754 15.3164 31.8754 16.4688C31.8754 17.6211 31.5348 18.7477 30.8962 19.7069C30.2577 20.6662 29.3498 21.4152 28.2867 21.8599C27.2237 22.3046 26.0528 22.425 24.9215 22.2061C23.7902 21.9872 22.7488 21.4387 21.9283 20.6295L18.3945 16.4688Z" fill="white"/>
</svg>
