<svg width="46" height="47" viewBox="0 0 46 47" fill="none" xmlns="http://www.w3.org/2000/svg">
<g clip-path="url(#clip0_2183_1207)">
<path d="M16.3527 17.5126L21.1039 23.0999L16.3556 28.6872C15.2538 29.7738 13.8554 30.5103 12.3362 30.8043C10.8169 31.0983 9.24467 30.9366 7.81711 30.3394C6.38955 29.7423 5.17039 28.7364 4.31293 27.4483C3.45546 26.1602 2.99797 24.6473 2.99797 23.0999C2.99797 21.5525 3.45546 20.0396 4.31293 18.7514C5.17039 17.4633 6.38955 16.4575 7.81711 15.8603C9.24467 15.2632 10.8169 15.1015 12.3362 15.3954C13.8554 15.6894 15.2538 16.426 16.3556 17.5126H16.3527ZM22.973 20.8969L18.4529 15.575L18.413 15.5322C16.9163 14.0359 15.0096 13.017 12.9339 12.6043C10.8582 12.1917 8.70675 12.4037 6.75157 13.2138C4.7964 14.0238 3.12531 15.3953 1.9496 17.155C0.77389 18.9147 0.146362 20.9835 0.146362 23.0999C0.146362 25.2162 0.77389 27.285 1.9496 29.0447C3.12531 30.8044 4.7964 32.176 6.75157 32.986C8.70675 33.796 10.8582 34.0081 12.9339 33.5954C15.0096 33.1827 16.9163 32.1639 18.413 30.6676L18.4529 30.6248L22.973 25.3028L27.4931 30.6248L27.533 30.6676C29.0297 32.1639 30.9364 33.1827 33.0121 33.5954C35.0878 34.0081 37.2393 33.796 39.1945 32.986C41.1496 32.176 42.8207 30.8044 43.9964 29.0447C45.1721 27.285 45.7997 25.2162 45.7997 23.0999C45.7997 20.9835 45.1721 18.9147 43.9964 17.155C42.8207 15.3953 41.1496 14.0238 39.1945 13.2138C37.2393 12.4037 35.0878 12.1917 33.0121 12.6043C30.9364 13.017 29.0297 14.0359 27.533 15.5322L27.4931 15.575L22.973 20.8969ZM24.845 23.0999L29.5905 17.5126C30.6922 16.426 32.0907 15.6894 33.6099 15.3954C35.1291 15.1015 36.7014 15.2632 38.1289 15.8603C39.5565 16.4575 40.7757 17.4633 41.6331 18.7514C42.4906 20.0396 42.9481 21.5525 42.9481 23.0999C42.9481 24.6473 42.4906 26.1602 41.6331 27.4483C40.7757 28.7364 39.5565 29.7423 38.1289 30.3394C36.7014 30.9366 35.1291 31.0983 33.6099 30.8043C32.0907 30.5103 30.6922 29.7738 29.5905 28.6872L24.845 23.0999Z" fill="#004A40"/>
</g>
<defs>
<clipPath id="clip0_2183_1207">
<rect width="45.6573" height="45.6573" fill="white" transform="translate(0.144409 0.984863)"/>
</clipPath>
</defs>
</svg>
