<svg width="20" height="27" viewBox="0 0 20 27" fill="none" xmlns="http://www.w3.org/2000/svg">
<path d="M2.5 9H3.75V6.5C3.75 3.05 6.55 0.25 10 0.25C13.45 0.25 16.25 3.05 16.25 6.5V9H17.5C18.875 9 20 10.125 20 11.5V24C20 25.375 18.875 26.5 17.5 26.5H2.5C1.125 26.5 0 25.375 0 24V11.5C0 10.125 1.125 9 2.5 9ZM10 20.25C11.375 20.25 12.5 19.125 12.5 17.75C12.5 16.375 11.375 15.25 10 15.25C8.625 15.25 7.5 16.375 7.5 17.75C7.5 19.125 8.625 20.25 10 20.25ZM13.75 9V6.5C13.75 4.425 12.075 2.75 10 2.75C7.925 2.75 6.25 4.425 6.25 6.5V9H13.75Z" fill="#004A40"/>
</svg>
