<svg width="53" height="53" viewBox="0 0 53 53" fill="none" xmlns="http://www.w3.org/2000/svg">
<path d="M38.2537 44.4042L38.2537 23.887C38.2537 22.3957 36.4831 21.6134 35.3805 22.6176L25.7254 31.4107C25.0488 32.0268 24.9744 33.0653 25.5561 33.7716L35.2112 45.4958C36.2353 46.7393 38.2537 46.0151 38.2537 44.4042Z" fill="#5D94CD"/>
<path d="M9.36235 15.1311L29.8796 15.1311C31.3709 15.1311 32.1532 16.9016 31.149 18.0042L22.3559 27.6594C21.7398 28.3359 20.7013 28.4104 19.995 27.8287L8.27084 18.1735C7.02735 17.1495 7.75147 15.1311 9.36235 15.1311Z" fill="#5D94CD"/>
<path d="M8.30308 29.8184L20.7909 31.3588C21.5855 31.4568 22.2069 32.091 22.2888 32.8874L23.5399 45.0618C23.6304 45.9424 22.4904 46.3671 21.9827 45.642L16.408 37.6803C16.2954 37.5195 16.1561 37.3792 15.9961 37.2655L7.70067 31.3703C6.9741 30.8539 7.41843 29.7093 8.30308 29.8184Z" fill="#5D94CD"/>
<path d="M37.5298 9.38801C38.4259 8.52895 39.6193 8.04933 40.8607 8.04933L41.0284 8.04933C43.3132 8.04933 45.2545 9.71991 45.5952 11.9791C45.8087 13.3947 45.3536 14.8292 44.3633 15.8629L24.1577 36.9519C22.1005 39.099 18.6835 39.1452 16.5692 37.0544C14.4385 34.9475 14.4653 31.4981 16.6283 29.4246L37.5298 9.38801Z" fill="#E4E6E6"/>
<path d="M38.3671 10.42C38.7393 10.0478 39.3427 10.0478 39.7149 10.42L43.0804 13.7855C43.4526 14.1577 43.4526 14.7612 43.0804 15.1334C42.77 15.4438 42.2883 15.502 41.9224 15.2593C41.326 14.8637 40.4366 14.2358 39.8506 13.6499C39.2646 13.0639 38.6367 12.1744 38.2411 11.578C37.9984 11.2122 38.0567 10.7304 38.3671 10.42Z" fill="#5D94CD"/>
<rect x="18.6509" y="33.5723" width="1.76464" height="6.97745" rx="0.88232" transform="rotate(45 18.6509 33.5723)" fill="#5D94CD"/>
</svg>
